<?xml version="1.0" encoding="UTF-8"?><svg id="uuid-9871ba12-3031-4463-8e2b-f0fe7baa1899" xmlns="http://www.w3.org/2000/svg" xmlns:xlink="http://www.w3.org/1999/xlink" viewBox="0 0 970.25 885.83"><defs><linearGradient id="uuid-04c2e794-fa70-4d64-8dc8-f4528ed70c2b" x1="334.72" y1="466.25" x2="799.46" y2="466.25" gradientTransform="translate(-73.11 119.13) rotate(-13.26)" gradientUnits="userSpaceOnUse"><stop offset="0" stop-color="#f7931e"/><stop offset="1" stop-color="#f77d1e"/></linearGradient></defs><g id="uuid-99074651-4b9d-4db6-b492-a25be57001cf"><path d="M496.35,866.84c-81.18,0-147.68-19.55-148.23-43.59-.4-17.37,33.04-24.17,83.67-34.46,43.61-8.87,97.88-19.9,155.33-41.97,68.01-26.12,123.4-61.16,169.36-107.11,97.87-97.87,130.3-169.43,149.67-212.18,13.41-29.58,20.79-45.88,39.56-47.18.31-.02.63-.03.94-.03,6.78,0,12.5,5.14,16.53,14.88,5.28,12.75,7.35,32.72,5.83,56.26-1.69,26.23-7.71,55.96-17.42,85.99-17.09,52.86-53.62,132.04-130.62,209.03-41.76,41.76-95.02,73.46-158.29,94.23-65.84,21.61-126.79,26.14-166.33,26.14Z" style="fill:#000; stroke-width:0px;"/><path d="M946.64,380.81c41.43,0,38.68,200.59-126.03,365.3-90.65,90.65-222.83,120.23-324.26,120.23-84.19,0-147.21-20.37-147.73-43.1-1.05-45.71,242.32-17.29,408.21-183.18,165.89-165.89,143.82-256.09,188.91-259.21.3-.02.61-.03.9-.03M946.64,379.81v1-1c-.33,0-.65.01-.98.03-19.07,1.32-26.49,17.71-39.98,47.47-19.36,42.72-51.76,114.22-149.57,212.03-24.37,24.37-52.16,46.16-82.59,64.75-26.26,16.05-55.39,30.26-86.6,42.24-57.42,22.05-111.67,33.08-155.25,41.95-50.87,10.34-84.48,17.18-84.07,34.97.27,11.69,15.61,22.7,43.2,31.01,27.98,8.43,65.46,13.07,105.53,13.07s100.59-4.54,166.49-26.17c63.34-20.79,116.67-52.53,158.48-94.35,77.06-77.06,113.63-156.31,130.74-209.23,9.72-30.06,15.75-59.84,17.44-86.11,1.52-23.61-.56-43.67-5.87-56.48-4.11-9.93-9.99-15.18-16.98-15.18h0Z" style="fill:#666; stroke-width:0px;"/><path d="M60.01,885.33c-.28,0-.5-.22-.5-.5-.1-57.08,19.3-113.43,54.62-158.69,17.64-22.61,38.73-41.95,62.68-57.49,24.78-16.08,52.06-27.7,81.08-34.54,19.49-4.59,39.43-6.92,59.26-6.92,56.99,0,113.25,19.45,158.42,54.76,22.56,17.64,41.87,38.71,57.38,62.64,16.05,24.76,27.65,52,34.48,80.98,4.58,19.46,6.91,39.39,6.91,59.26,0,.28-.22.5-.5.5H60.01Z" style="fill:#000; stroke-width:0px;"/><path d="M317.14,627.69c116.44,0,221.92,79.74,249.79,197.99,4.67,19.82,6.9,39.63,6.9,59.15H60.01c-.2-116.62,79.57-222.32,197.99-250.23,19.82-4.67,39.63-6.91,59.15-6.91M317.14,626.69c-19.87,0-39.85,2.33-59.38,6.94-29.07,6.85-56.4,18.5-81.23,34.61-23.99,15.57-45.12,34.95-62.8,57.6-17.52,22.44-31.13,47.44-40.47,74.3-9.51,27.34-14.3,55.84-14.26,84.7,0,.55.45,1,1,1h513.82c.55,0,1-.45,1-1,0-19.91-2.33-39.88-6.92-59.37-6.84-29.04-18.47-56.34-34.55-81.14-15.54-23.97-34.88-45.09-57.49-62.76-22.4-17.51-47.35-31.14-74.16-40.5-27.29-9.53-55.74-14.36-84.57-14.36h0Z" style="fill:#666; stroke-width:0px;"/><g id="uuid-815dee73-81da-4020-985b-95cf9732899a"><g id="uuid-ce9583e5-a2b8-43af-8e7c-2e6806cdf834"><g id="uuid-6933adc9-39d0-4410-b0db-cf3494669b89"><path d="M360.13,496.54c-.23,0-.43-.16-.49-.39-.06-.24.07-.48.29-.57l432.3-187.31c.06-.03.13-.04.2-.04.08,0,.15.02.22.05.13.07.23.19.26.33l38.15,161.85c.03.14,0,.29-.09.41-.09.12-.23.19-.37.2,0,0-470.47,25.46-470.48,25.46Z" style="fill:url(#uuid-04c2e794-fa70-4d64-8dc8-f4528ed70c2b); stroke-width:0px;"/><path d="M792.43,308.72l38.15,161.85-470.45,25.46,432.3-187.31M792.43,307.72c-.14,0-.27.03-.4.08l-432.3,187.31c-.44.19-.69.68-.58,1.15.11.45.51.77.97.77.02,0,.04,0,.05,0l470.45-25.46c.3-.02.57-.16.75-.4.18-.24.24-.54.17-.83l-38.15-161.85c-.07-.29-.26-.53-.52-.66-.14-.07-.29-.11-.45-.11h0Z" style="fill:#666; stroke-width:0px;"/></g><g id="uuid-b5fc5c1d-a144-4eba-9dab-f140626c64d4"><path d="M813.83,481.46c-5.32,0-9.89-3.62-11.11-8.81l-36.67-155.56c-.7-2.97-.2-6.03,1.4-8.63,1.61-2.6,4.12-4.41,7.1-5.11l8.21-1.93c.86-.2,1.75-.31,2.63-.31,5.32,0,9.89,3.62,11.11,8.81l36.67,155.56c.7,2.97.2,6.03-1.4,8.63-1.61,2.6-4.12,4.41-7.1,5.11l-8.21,1.93c-.86.2-1.75.31-2.63.31Z" style="fill:#f7931e; stroke-width:0px;"/><path d="M785.39,301.61c4.95,0,9.44,3.39,10.62,8.42l36.67,155.56c1.38,5.87-2.25,11.75-8.13,13.14l-8.21,1.93c-.84.2-1.69.29-2.52.29-4.95,0-9.44-3.39-10.62-8.42l-36.67-155.56c-1.38-5.87,2.25-11.75,8.13-13.14l8.21-1.93c.84-.2,1.69-.29,2.52-.29M785.39,300.61c-.92,0-1.84.11-2.74.32l-8.21,1.93c-6.4,1.51-10.38,7.94-8.87,14.34l36.67,155.56c1.28,5.41,6.04,9.19,11.6,9.19.92,0,1.84-.11,2.74-.32l8.21-1.93c6.4-1.51,10.38-7.94,8.87-14.34l-36.67-155.56c-1.28-5.41-6.04-9.19-11.6-9.19h0Z" style="fill:#666; stroke-width:0px;"/></g><g id="uuid-f4b3b97b-9433-43ff-8d47-40885fd39502"><path d="M317.77,753.71c-56.99,0-113.26-19.45-158.42-54.75-22.56-17.64-41.87-38.71-57.38-62.64-16.05-24.76-27.65-52-34.48-80.99-15.77-66.91-4.54-135.96,31.62-194.42,36.16-58.47,92.93-99.35,159.84-115.12,19.49-4.59,39.43-6.92,59.26-6.92,56.99,0,113.26,19.45,158.42,54.75,22.56,17.64,41.87,38.71,57.38,62.64,16.05,24.76,27.65,52,34.48,80.99,15.77,66.91,4.54,135.96-31.62,194.42s-92.93,99.35-159.84,115.12c-19.49,4.59-39.43,6.92-59.26,6.92Z" style="fill:#000; stroke-width:0px;"/><path d="M318.21,239.36c116.45,0,221.92,79.73,249.79,197.99,32.55,138.08-53.01,276.4-191.09,308.94-19.81,4.67-39.64,6.91-59.15,6.91-116.45,0-221.92-79.73-249.79-197.99-32.55-138.08,53.01-276.4,191.09-308.94,19.81-4.67,39.64-6.91,59.15-6.91M318.22,238.36v1-1c-19.88,0-39.86,2.33-59.38,6.94-33.88,7.99-65.19,22.37-93.05,42.75-26.91,19.69-49.48,44.11-67.1,72.59-17.62,28.48-29.39,59.59-34.98,92.46-5.79,34.03-4.68,68.46,3.3,102.34,6.84,29.04,18.47,56.34,34.55,81.14,15.54,23.97,34.88,45.09,57.49,62.76,22.4,17.51,47.35,31.14,74.16,40.5,27.29,9.53,55.75,14.36,84.57,14.36,19.87,0,39.85-2.33,59.38-6.94,33.88-7.99,65.19-22.37,93.05-42.75,26.91-19.69,49.48-44.11,67.1-72.59,17.62-28.48,29.39-59.59,34.98-92.46,5.79-34.03,4.68-68.46-3.3-102.34-6.84-29.04-18.47-56.34-34.55-81.14-15.54-23.97-34.88-45.09-57.49-62.76-22.4-17.51-47.35-31.14-74.16-40.5-27.29-9.53-55.74-14.36-84.57-14.36h0Z" style="fill:#666; stroke-width:0px;"/></g></g><g id="uuid-519d1733-f431-47e7-b433-34202f055b1c"><g id="uuid-77b66f22-f8be-4c27-a68f-3320fdaa70a0"><circle cx="452.42" cy="395.02" r="38.5" style="fill:#fff; stroke-width:0px;"/></g><g id="uuid-fd9ba5ef-5e54-41b5-a43f-df1256fce309"><circle cx="452.12" cy="394.57" r="29.55" style="fill:#000; stroke-width:0px;"/></g></g></g><path d="M883.42,348.75c-.13,0-.25-.05-.35-.14-.74-.71-73.54-71.66-71.43-116.11.45-9.6,4.36-17.41,11.6-23.2,4.4-3.52,9.06-5.3,13.84-5.3,10.53,0,21.62,8.35,32.95,24.82,7.16,10.41,12.15,20.94,13.49,23.88,1.99-2.77,9.61-13.11,19.77-23.33,10.93-11.01,27.12-24.13,42.17-24.13,5.67,0,10.85,1.85,15.4,5.49,5.71,4.57,8.7,10.76,8.88,18.4,1.01,42.36-85.12,118.73-85.99,119.49-.09.08-.21.12-.33.12Z" style="fill:#c1272d; stroke-width:0px;"/><path d="M837.08,204.51c24.98,0,46.34,49.2,46.34,49.2,0,0,33.24-47.96,62.03-47.96,5.26,0,10.36,1.6,15.09,5.38,41.19,32.91-77.12,137.12-77.12,137.12,0,0-105.53-102.06-59.87-138.56,4.56-3.64,9.1-5.19,13.53-5.19M837.08,203.51h0c-4.9,0-9.66,1.82-14.15,5.41-7.36,5.88-11.33,13.81-11.79,23.57-.89,18.8,10.91,44.13,35.06,75.3,17.92,23.13,36.35,41.01,36.53,41.19.19.19.44.28.7.28.24,0,.47-.08.66-.25.22-.19,22-19.44,43.38-43.66,28.81-32.64,43.21-58.29,42.78-76.22-.19-7.8-3.24-14.11-9.07-18.78-4.65-3.71-9.93-5.6-15.72-5.6-12.22,0-26.52,8.17-42.52,24.28-9.46,9.53-16.74,19.16-19.32,22.7-1.74-3.74-6.52-13.51-13.17-23.18-11.43-16.61-22.65-25.03-33.36-25.04h0Z" style="fill:#666; stroke-width:0px;"/></g><g id="uuid-8cb9a7a5-0530-4558-81a9-161b75ddfbb8"><path d="M77.99,385.71c-.26,0-.48-.2-.51-.46q-.04-.48,2.67-.96c6.76-2.1,9.67-12.06,10.93-20.06,1.63-10.4,1.41-24.06-.6-37.5-2.01-13.42-5.62-25.65-10.17-34.44-5.11-9.88-11.21-15.11-17.63-15.11-.68,0-1.34.06-2.03.17-1.43.23-1.46.24-1.51.24h0c-.26,0-.48-.2-.5-.46q-.04-.47,5.23-1.38c3.14-.54,7.75-1.33,13.62-2.33,11.74-2,28.5-4.86,48.62-8.28,40.23-6.84,93.86-15.95,147.47-25.05,95.74-16.26,194.74-33.07,211.38-35.95.33-.08.67-.15,1.01-.2,1.48-.24,1.51-.24,1.57-.24.26,0,.48.2.5.46q.04.46-2.88.97c-11.13,2.69-15.94,19.71-12.88,45.54,3.45,29.13,16.94,61.59,30.76,61.59.45,0,.9-.03,1.35-.1.97-.15,1.04-.15,1.1-.15.26,0,.48.2.51.46q.04.49-5.21,1.41c-3.13.55-7.73,1.34-13.57,2.34-11.69,2-28.4,4.85-48.45,8.25-40.09,6.81-93.55,15.85-147,24.89-96,16.24-195.27,33.04-211.38,35.9-.43.13-.88.23-1.33.3-.95.14-1.01.14-1.07.14Z" style="fill:#fff; stroke-width:0px;"/><path d="M487.54,204.21s-.82.15-2.48.44c.32-.08.66-.15.99-.2.97-.16,1.46-.24,1.49-.24M485.06,204.64c-29.71,7.15-7.24,108.12,17.99,108.12.47,0,.95-.04,1.42-.11.63-.1.97-.14,1.02-.14,2.11,0-391.58,66.28-425.22,72.27,23.38-7.16,11.56-108.08-17.59-108.09-.7,0-1.4.06-2.11.17-.94.15-1.41.23-1.43.23-.85,0,391.03-66.41,425.93-72.44M80.27,384.78c-.42.13-.85.23-1.29.29-.61.09-.94.14-.99.14-.1,0,.69-.15,2.28-.43M487.54,203.21c-.11,0-.12,0-1.65.25-.35.06-.69.13-1.03.21-16.44,2.84-109.11,18.58-207.22,35.24-54.29,9.22-108.96,18.5-150.05,25.49-20.55,3.49-37.7,6.41-49.72,8.46-6.01,1.03-10.73,1.83-13.96,2.39-1.61.28-2.85.49-3.68.64-1.66.29-2.16.38-2.09,1.3.04.52.48.92,1,.92.11,0,.12,0,1.6-.24.66-.11,1.3-.16,1.95-.16,7.87,0,13.7,8.08,17.2,14.85,4.52,8.75,8.11,20.94,10.11,34.31,3.73,24.95,1.51,53.36-9.96,56.96-.72.13-1.28.23-1.65.3-.66.12-1.47.28-1.39,1.19.05.52.49.91,1,.91.09,0,.16,0,1.14-.15.46-.07.92-.17,1.37-.31,16.21-2.88,115.48-19.68,211.48-35.92,52.53-8.89,106.85-18.08,146.92-24.88,21.57-3.66,37.4-6.36,48.41-8.24,5.84-1,10.43-1.79,13.56-2.34,1.57-.27,2.77-.49,3.58-.63,1.54-.28,2.12-.38,2.04-1.31-.04-.52-.49-.92-1-.92-.09,0-.16,0-1.17.15-.42.06-.85.1-1.27.1-6.21,0-12.88-6.89-18.79-19.39-5.54-11.72-9.72-26.94-11.48-41.75-2.34-19.72-.29-41.89,12.48-44.99.8-.14,1.41-.24,1.82-.32.75-.13,1.53-.27,1.45-1.19-.04-.52-.48-.91-1-.91h0Z" style="fill:#666; stroke-width:0px;"/><path d="M414.17,254.8c-22.91,0-45.26-8.14-62.93-22.92-17.87-14.94-29.87-35.84-33.79-58.84-4.4-25.87,1.53-51.9,16.71-73.3,15.18-21.4,37.78-35.61,63.64-40.02,5.49-.93,11.07-1.41,16.6-1.41,22.91,0,45.26,8.14,62.93,22.92,17.87,14.94,29.87,35.84,33.79,58.84,4.4,25.87-1.53,51.9-16.71,73.3-15.18,21.4-37.78,35.61-63.64,40.02-5.49.93-11.07,1.41-16.6,1.41Z" style="fill:#fff; stroke-width:0px;"/><path d="M414.41,58.82c46.77,0,88.11,33.68,96.22,81.34,9.06,53.21-26.74,103.68-79.94,112.74-5.55.94-11.07,1.4-16.51,1.4-46.77,0-88.11-33.68-96.22-81.34-9.06-53.21,26.74-103.68,79.94-112.74,5.55-.94,11.07-1.4,16.51-1.4M414.41,57.82v1-1c-5.56,0-11.17.48-16.69,1.42-53.67,9.13-89.89,60.22-80.76,113.89,3.93,23.12,15.99,44.12,33.96,59.14,17.76,14.85,40.23,23.03,63.25,23.03,5.55,0,11.16-.48,16.68-1.42,26-4.42,48.71-18.71,63.97-40.22,15.25-21.51,21.22-47.67,16.79-73.67-3.93-23.12-15.99-44.12-33.96-59.14-17.76-14.85-40.22-23.03-63.25-23.03h0Z" style="fill:#666; stroke-width:0px;"/><path d="M98.62,308.5c-22.91,0-45.26-8.14-62.93-22.92-17.87-14.94-29.87-35.84-33.79-58.84-4.4-25.87,1.53-51.9,16.71-73.3,15.18-21.4,37.78-35.61,63.64-40.02,5.49-.93,11.07-1.41,16.6-1.41,22.91,0,45.26,8.14,62.93,22.92,17.87,14.94,29.87,35.84,33.79,58.84,4.4,25.87-1.53,51.9-16.71,73.3-15.18,21.4-37.78,35.61-63.64,40.02-5.49.93-11.07,1.41-16.6,1.41Z" style="fill:#fff; stroke-width:0px;"/><path d="M98.85,112.52c46.77,0,88.11,33.68,96.22,81.34,9.06,53.21-26.74,103.68-79.94,112.74-5.55.94-11.07,1.4-16.51,1.4-46.77,0-88.11-33.68-96.22-81.34-9.06-53.21,26.74-103.68,79.94-112.74,5.55-.94,11.07-1.4,16.51-1.4M98.86,111.52v1-1c-5.56,0-11.17.48-16.69,1.42C28.5,122.07-7.72,173.16,1.41,226.83c3.93,23.12,15.99,44.12,33.96,59.14,17.76,14.85,40.23,23.03,63.25,23.03,5.55,0,11.16-.48,16.68-1.42,53.67-9.13,89.89-60.22,80.76-113.89-3.93-23.12-15.99-44.12-33.96-59.14-17.76-14.85-40.22-23.03-63.25-23.03h0Z" style="fill:#666; stroke-width:0px;"/><ellipse cx="232.18" cy="161.36" rx="162.67" ry="159.32" transform="translate(-23.78 41.24) rotate(-9.66)" style="fill:#fff; stroke-width:0px;"/><path d="M82.83,226.2c29.09,65.55,101.05,105.61,176.33,92.56,9.42-1.63,18.52-4.03,27.23-7.12,60.89-21.56,103.14-76.54,107.79-139.1h0c-1.8,24.9-7.63,48.81-20.78,70.61-19.64,32.57-50.32,57.54-86.37,70.31l-.64-1.81.24.68.4,1.13h0c-8.9,3.15-18.16,5.57-27.54,7.2-43.31,7.51-86.89-1.95-122.73-26.63-25-17.22-42.14-40.96-53.93-67.82h0Z" style="fill:#666; stroke-width:0px;"/><path d="M70.03,150.41C75.58,78.91,130.03,17.12,205.36,4.3c9.43-1.6,18.8-2.38,28.04-2.38,64.59,0,122.77,37.72,148.04,95.15h0c-10.01-22.87-23.49-43.47-43.15-59.62C308.9,13.3,271.65,0,233.4,0v1.92-.73s0-1.19,0-1.19h0c-9.44,0-18.98.81-28.37,2.41-43.33,7.38-81.26,30.84-106.8,66.07-17.82,24.58-26.06,52.67-28.2,81.93h0Z" style="fill:#666; stroke-width:0px;"/></g></svg>